<svg width="134" height="182" viewBox="0 0 134 182" fill="none" xmlns="http://www.w3.org/2000/svg">
<g opacity="0.8" clip-path="url(#clip0_2234_9590)">
<path d="M39.304 176.642C40.7761 176.645 41.8781 177.755 41.8753 179.232C41.8724 180.709 40.7662 181.814 39.294 181.812C37.8219 181.809 36.7199 180.699 36.7227 179.222C36.7256 177.745 37.9545 176.639 39.304 176.642Z" fill="#FFCF2D"/>
<path d="M39.3465 154.609C40.8186 154.612 41.9206 155.722 41.9177 157.199C41.9149 158.676 40.8087 159.781 39.3365 159.778C37.8644 159.776 36.7624 158.666 36.7652 157.189C36.7678 155.835 37.997 154.606 39.3465 154.609Z" fill="#FFCF2D"/>
<path d="M39.3889 132.701C40.8611 132.703 41.9631 133.813 41.9602 135.29C41.9574 136.767 40.8511 137.873 39.379 137.87C37.9068 137.867 36.8049 136.757 36.8077 135.28C36.8106 133.803 38.0395 132.698 39.3889 132.701Z" fill="#FFCF2D"/>
<path d="M39.4309 110.667C40.9031 110.67 42.0051 111.78 42.0022 113.257C41.9994 114.734 40.8931 115.84 39.421 115.837C37.9488 115.834 36.8469 114.724 36.8497 113.247C36.8525 111.77 38.0815 110.665 39.4309 110.667Z" fill="#FFCF2D"/>
<path d="M39.4734 88.6351C40.9456 88.638 42.0475 89.7479 42.0447 91.2249C42.0418 92.7019 40.9356 93.8076 39.4635 93.8048C37.9913 93.8019 36.8893 92.692 36.8922 91.215C36.8948 89.861 38.1239 88.6325 39.4734 88.6351Z" fill="#FFCF2D"/>
<path d="M39.5159 66.6019C40.988 66.6048 42.09 67.7147 42.0872 69.1917C42.0843 70.6687 40.9781 71.7744 39.5059 71.7716C38.0338 71.7687 36.9318 70.6588 36.9347 69.1818C36.9375 67.7047 38.1664 66.5993 39.5159 66.6019Z" fill="#FFCF2D"/>
<path d="M39.5579 44.6937C41.03 44.6966 42.132 45.8065 42.1292 47.2835C42.1263 48.7605 41.0201 49.8662 39.5479 49.8634C38.0758 49.8605 36.9738 48.7506 36.9767 47.2736C36.9795 45.7965 38.2084 44.6911 39.5579 44.6937Z" fill="#FFCF2D"/>
<path d="M39.6004 22.6605C41.0725 22.6634 42.1745 23.7733 42.1716 25.2503C42.1688 26.7273 41.0626 27.833 39.5904 27.8302C38.1183 27.8273 37.0163 26.7174 37.0191 25.2404C37.022 23.7634 38.2509 22.6579 39.6004 22.6605Z" fill="#FFCF2D"/>
<path d="M39.6428 0.628321C41.115 0.631156 42.217 1.74104 42.2141 3.21808C42.2113 4.69511 41.105 5.80076 39.6329 5.79793C38.1607 5.79509 37.0588 4.68519 37.0616 3.20816C37.0642 1.85421 38.2934 0.625723 39.6428 0.628321Z" fill="#FFCF2D"/>
<path d="M57.5833 176.677C59.0554 176.68 60.1574 177.79 60.1546 179.267C60.1517 180.744 59.0455 181.85 57.5733 181.847C56.1012 181.844 54.9992 180.734 55.002 179.257C55.0049 177.78 56.1111 176.674 57.5833 176.677Z" fill="#FFCF2D"/>
<path d="M57.6258 154.645C59.0979 154.648 60.1999 155.758 60.197 157.235C60.1942 158.712 59.088 159.817 57.6158 159.815C56.1437 159.812 55.0417 158.702 55.0445 157.225C55.0471 155.871 56.1536 154.642 57.6258 154.645Z" fill="#FFCF2D"/>
<path d="M57.6678 132.736C59.1399 132.739 60.2419 133.848 60.239 135.325C60.2362 136.803 59.1299 137.908 57.6578 137.905C56.1857 137.903 55.0837 136.793 55.0865 135.316C55.0894 133.839 56.1956 132.733 57.6678 132.736Z" fill="#FFCF2D"/>
<path d="M57.7102 110.703C59.1824 110.705 60.2844 111.815 60.2815 113.292C60.2787 114.769 59.1724 115.875 57.7003 115.872C56.2281 115.869 55.1262 114.759 55.129 113.282C55.1318 111.805 56.2381 110.7 57.7102 110.703Z" fill="#FFCF2D"/>
<path d="M57.7527 88.6703C59.2249 88.6731 60.3268 89.783 60.324 91.2601C60.3212 92.7371 59.2149 93.8428 57.7428 93.8399C56.2706 93.8371 55.1686 92.7272 55.1715 91.2501C55.1741 89.8962 56.2806 88.6675 57.7527 88.6703Z" fill="#FFCF2D"/>
<path d="M57.7952 66.6381C59.2673 66.6409 60.3693 67.7508 60.3665 69.2278C60.3636 70.7049 59.2574 71.8105 57.7852 71.8077C56.3131 71.8049 55.2111 70.695 55.214 69.2179C55.2168 67.7409 56.323 66.6352 57.7952 66.6381Z" fill="#FFCF2D"/>
<path d="M57.8372 44.7289C59.3093 44.7317 60.4113 45.8416 60.4085 47.3187C60.4056 48.7957 59.2994 49.9013 57.8272 49.8985C56.3551 49.8957 55.2531 48.7858 55.256 47.3087C55.2588 45.8317 56.365 44.7261 57.8372 44.7289Z" fill="#FFCF2D"/>
<path d="M57.8797 22.6957C59.3518 22.6985 60.4538 23.8084 60.451 25.2855C60.4481 26.7625 59.3419 27.8681 57.8697 27.8653C56.3976 27.8625 55.2956 26.7526 55.2984 25.2755C55.3013 23.7985 56.4075 22.6928 57.8797 22.6957Z" fill="#FFCF2D"/>
<path d="M57.9221 0.663463C59.3943 0.666297 60.4963 1.77619 60.4934 3.25322C60.4906 4.73026 59.3843 5.83592 57.9122 5.83308C56.4401 5.83025 55.3381 4.72034 55.3409 3.2433C55.3435 1.88935 56.45 0.660628 57.9221 0.663463Z" fill="#FFCF2D"/>
<path d="M2.86844 176.572C4.34058 176.574 5.44256 177.684 5.43971 179.161C5.43687 180.638 4.33063 181.744 2.85848 181.741C1.38634 181.738 0.284359 180.629 0.287203 179.152C0.290047 177.674 1.39629 176.569 2.86844 176.572Z" fill="#FFCF2D"/>
<path d="M2.91092 154.539C4.38306 154.542 5.48504 155.652 5.48219 157.129C5.47935 158.606 4.37311 159.712 2.90096 159.709C1.42882 159.706 0.32684 158.596 0.329683 157.119C0.33229 155.765 1.43877 154.537 2.91092 154.539Z" fill="#FFCF2D"/>
<path d="M2.95291 132.63C4.42505 132.633 5.52703 133.743 5.52419 135.22C5.52134 136.697 4.4151 137.803 2.94295 137.8C1.47081 137.797 0.369069 136.564 0.371676 135.21C0.374519 133.733 1.48076 132.627 2.95291 132.63Z" fill="#FFCF2D"/>
<path d="M2.99539 110.597C4.46753 110.6 5.56951 111.71 5.56667 113.187C5.56382 114.664 4.45758 115.77 2.98544 115.767C1.51329 115.764 0.411549 114.531 0.414156 113.177C0.416763 111.823 1.52324 110.594 2.99539 110.597Z" fill="#FFCF2D"/>
<path d="M3.03787 88.5648C4.51001 88.5677 5.61199 89.6776 5.60915 91.1546C5.6063 92.6316 4.50006 93.7373 3.02792 93.7345C1.55577 93.7316 0.453793 92.6217 0.456636 91.1447C0.459243 89.7907 1.56572 88.562 3.03787 88.5648Z" fill="#FFCF2D"/>
<path d="M3.08035 66.5326C4.5525 66.5354 5.65447 67.6453 5.65163 69.1224C5.64878 70.5994 4.54254 71.7051 3.0704 71.7022C1.59825 71.6994 0.496273 70.5895 0.499117 69.1125C0.501961 67.6354 1.6082 66.5298 3.08035 66.5326Z" fill="#FFCF2D"/>
<path d="M3.12234 44.6234C4.59449 44.6263 5.69646 45.7362 5.69362 47.2132C5.69078 48.6902 4.58453 49.7959 3.11239 49.793C1.64024 49.7902 0.538266 48.6803 0.541109 47.2033C0.543953 45.7262 1.65019 44.6206 3.12234 44.6234Z" fill="#FFCF2D"/>
<path d="M3.16482 22.5902C4.63697 22.593 5.73894 23.703 5.7361 25.18C5.73326 26.657 4.62702 27.7627 3.15487 27.7598C1.68272 27.757 0.580746 26.6471 0.58359 25.1701C0.586433 23.693 1.69268 22.5874 3.16482 22.5902Z" fill="#FFCF2D"/>
<path d="M3.2073 0.558009C4.67945 0.560843 5.78143 1.67073 5.77858 3.14776C5.77574 4.62479 4.6695 5.73045 3.19735 5.72762C1.7252 5.72478 0.623226 4.61488 0.62607 3.13784C0.628677 1.7839 1.73516 0.555175 3.2073 0.558009Z" fill="#FFCF2D"/>
<path d="M21.1477 176.607C22.6199 176.61 23.7219 177.72 23.719 179.197C23.7162 180.674 22.4872 181.779 21.1378 181.776C19.6656 181.774 18.5637 180.664 18.5665 179.187C18.5693 177.71 19.6756 176.604 21.1477 176.607Z" fill="#FFCF2D"/>
<path d="M21.1902 154.575C22.6624 154.577 23.7643 155.687 23.7615 157.164C23.7586 158.641 22.6524 159.747 21.1803 159.744C19.7081 159.741 18.6061 158.631 18.609 157.154C18.6116 155.8 19.7181 154.572 21.1902 154.575Z" fill="#FFCF2D"/>
<path d="M21.2322 132.665C22.7044 132.668 23.8063 133.778 23.8035 135.255C23.8006 136.732 22.6944 137.838 21.2223 137.835C19.7501 137.832 18.6481 136.722 18.651 135.245C18.6538 133.768 19.7601 132.663 21.2322 132.665Z" fill="#FFCF2D"/>
<path d="M21.2747 110.632C22.7468 110.635 23.8488 111.745 23.846 113.222C23.8431 114.699 22.7369 115.805 21.2647 115.802C19.7926 115.799 18.6906 114.689 18.6935 113.212C18.6963 111.735 19.8025 110.629 21.2747 110.632Z" fill="#FFCF2D"/>
<path d="M21.3172 88.6C22.7893 88.6028 23.8913 89.7127 23.8884 91.1898C23.8856 92.6668 22.7794 93.7724 21.3072 93.7696C19.8351 93.7668 18.7331 92.6569 18.7359 91.1798C18.7385 89.8259 19.845 88.5971 21.3172 88.6Z" fill="#FFCF2D"/>
<path d="M21.3596 66.5678C22.8318 66.5706 23.9338 67.6805 23.9309 69.1575C23.9281 70.6346 22.8218 71.7402 21.3497 71.7374C19.8775 71.7345 18.7756 70.6246 18.7784 69.1476C18.7813 67.6706 19.8875 66.5649 21.3596 66.5678Z" fill="#FFCF2D"/>
<path d="M21.4016 44.6586C22.8738 44.6614 23.9758 45.7713 23.9729 47.2483C23.9701 48.7254 22.8638 49.831 21.3917 49.8282C19.9195 49.8254 18.8176 48.7155 18.8204 47.2384C18.8232 45.7614 19.9295 44.6557 21.4016 44.6586Z" fill="#FFCF2D"/>
<path d="M21.4441 22.6254C22.9163 22.6282 24.0182 23.7381 24.0154 25.2151C24.0126 26.6922 22.9063 27.7978 21.4342 27.795C19.962 27.7922 18.86 26.6823 18.8629 25.2052C18.8657 23.7282 19.972 22.6225 21.4441 22.6254Z" fill="#FFCF2D"/>
<path d="M21.4866 0.59315C22.9587 0.595984 24.0607 1.70588 24.0579 3.18291C24.055 4.65995 22.9488 5.76561 21.4766 5.76277C20.0045 5.75994 18.9025 4.65003 18.9054 3.17299C18.908 1.81904 20.0145 0.590316 21.4866 0.59315Z" fill="#FFCF2D"/>
<path d="M75.74 176.712C77.2122 176.715 78.3141 177.825 78.3113 179.302C78.3085 180.779 77.2022 181.885 75.7301 181.882C74.2579 181.879 73.1559 180.769 73.1588 179.292C73.1616 177.815 74.3905 176.71 75.74 176.712Z" fill="#FFCF2D"/>
<path d="M75.782 154.679C77.2541 154.682 78.3561 155.792 78.3533 157.269C78.3504 158.746 77.2442 159.852 75.7721 159.849C74.2999 159.846 73.1979 158.736 73.2008 157.259C73.2034 155.905 74.4325 154.676 75.782 154.679Z" fill="#FFCF2D"/>
<path d="M75.8245 132.77C77.2966 132.773 78.3986 133.883 78.3958 135.36C78.3929 136.837 77.2867 137.942 75.8145 137.94C74.3424 137.937 73.2404 136.827 73.2433 135.35C73.2461 133.873 74.475 132.767 75.8245 132.77Z" fill="#FFCF2D"/>
<path d="M75.867 110.738C77.3391 110.74 78.4411 111.85 78.4382 113.327C78.4354 114.804 77.3292 115.91 75.857 115.907C74.3849 115.904 73.2829 114.795 73.2857 113.318C73.2886 111.84 74.5175 110.735 75.867 110.738Z" fill="#FFCF2D"/>
<path d="M75.9094 88.7054C77.3816 88.7083 78.4836 89.8182 78.4807 91.2952C78.4779 92.7723 77.3716 93.8779 75.8995 93.8751C74.4274 93.8722 73.3254 92.7623 73.3282 91.2853C73.3308 89.9314 74.56 88.7028 75.9094 88.7054Z" fill="#FFCF2D"/>
<path d="M75.9514 66.6723C77.4236 66.6751 78.5256 67.785 78.5227 69.262C78.5199 70.7391 77.4136 71.8447 75.9415 71.8419C74.4693 71.839 73.3674 70.7291 73.3702 69.2521C73.3731 67.7751 74.602 66.6697 75.9514 66.6723Z" fill="#FFCF2D"/>
<path d="M75.9939 44.7631C77.4661 44.7659 78.568 45.8758 78.5652 47.3528C78.5624 48.8299 77.4561 49.9355 75.984 49.9327C74.5118 49.9299 73.4098 48.8199 73.4127 47.3429C73.4155 45.8659 74.6445 44.7605 75.9939 44.7631Z" fill="#FFCF2D"/>
<path d="M76.0364 22.7308C77.5085 22.7337 78.6105 23.8436 78.6077 25.3206C78.6048 26.7977 77.4986 27.9033 76.0265 27.9005C74.5543 27.8976 73.4523 26.7877 73.4552 25.3107C73.458 23.8337 74.6869 22.7282 76.0364 22.7308Z" fill="#FFCF2D"/>
<path d="M76.0789 0.698619C77.551 0.701453 78.653 1.81134 78.6502 3.28838C78.6473 4.76542 77.5411 5.87108 76.0689 5.86824C74.5968 5.86541 73.4948 4.7555 73.4977 3.27846C73.5003 1.92451 74.7294 0.696021 76.0789 0.698619Z" fill="#FFCF2D"/>
<path d="M94.0188 176.747C95.491 176.75 96.5929 177.86 96.5901 179.337C96.5873 180.814 95.481 181.92 94.0089 181.917C92.5367 181.914 91.4347 180.804 91.4376 179.327C91.4404 177.85 92.5467 176.745 94.0188 176.747Z" fill="#FFCF2D"/>
<path d="M94.0613 154.714C95.5334 154.717 96.6354 155.827 96.6326 157.304C96.6297 158.781 95.5235 159.887 94.0513 159.884C92.5792 159.881 91.4772 158.771 91.4801 157.294C91.4827 155.94 92.5892 154.711 94.0613 154.714Z" fill="#FFCF2D"/>
<path d="M94.1033 132.805C95.5754 132.808 96.6774 133.918 96.6746 135.395C96.6717 136.872 95.5655 137.978 94.0933 137.975C92.6212 137.972 91.5192 136.862 91.5221 135.385C91.5249 133.908 92.6311 132.802 94.1033 132.805Z" fill="#FFCF2D"/>
<path d="M96.717 113.363C96.7198 111.935 95.5686 110.776 94.1458 110.773C92.7229 110.77 91.5673 111.925 91.5645 113.353C91.5618 114.78 92.713 115.94 94.1358 115.942C95.5586 115.945 96.7143 114.79 96.717 113.363Z" fill="#FFCF2D"/>
<path d="M94.1883 88.7406C95.6604 88.7434 96.7624 89.8533 96.7595 91.3304C96.7567 92.8074 95.6504 93.9131 94.1783 93.9102C92.7062 93.9074 91.6042 92.7975 91.607 91.3205C91.6096 89.9665 92.7161 88.7378 94.1883 88.7406Z" fill="#FFCF2D"/>
<path d="M94.2307 66.7074C95.7029 66.7102 96.8049 67.8201 96.802 69.2972C96.7992 70.7742 95.6929 71.8799 94.2208 71.877C92.7486 71.8742 91.6467 70.7643 91.6495 69.2873C91.6524 67.8102 92.7586 66.7046 94.2307 66.7074Z" fill="#FFCF2D"/>
<path d="M94.2727 44.7982C95.7449 44.801 96.8468 45.9109 96.844 47.388C96.8412 48.865 95.7349 49.9707 94.2628 49.9679C92.7906 49.965 91.6887 48.8551 91.6915 47.3781C91.6943 45.901 92.8006 44.7954 94.2727 44.7982Z" fill="#FFCF2D"/>
<path d="M96.8865 25.3558C96.8892 23.9282 95.738 22.7687 94.3152 22.766C92.8924 22.7632 91.7367 23.9183 91.734 25.3458C91.7312 26.7734 92.8824 27.9329 94.3053 27.9356C95.7281 27.9384 96.8837 26.7833 96.8865 25.3558Z" fill="#FFCF2D"/>
<path d="M94.3577 0.733775C95.8298 0.736609 96.9318 1.8465 96.929 3.32354C96.9261 4.80057 95.8199 5.90623 94.3477 5.9034C92.8756 5.90056 91.7736 4.79065 91.7765 3.31362C91.7791 1.95967 92.8855 0.730941 94.3577 0.733775Z" fill="#FFCF2D"/>
<path d="M112.298 176.783C113.77 176.785 114.872 177.895 114.869 179.372C114.867 180.849 113.76 181.955 112.288 181.952C110.816 181.949 109.714 180.839 109.717 179.362C109.72 177.885 110.826 176.78 112.298 176.783Z" fill="#FFCF2D"/>
<path d="M112.341 154.749C113.813 154.752 114.915 155.862 114.912 157.339C114.909 158.816 113.803 159.922 112.331 159.919C110.859 159.916 109.757 158.806 109.759 157.329C109.762 155.975 110.868 154.747 112.341 154.749Z" fill="#FFCF2D"/>
<path d="M112.383 132.84C113.855 132.843 114.957 133.953 114.954 135.43C114.951 136.907 113.845 138.013 112.373 138.01C110.901 138.007 109.799 136.897 109.801 135.42C109.804 133.943 110.91 132.837 112.383 132.84Z" fill="#FFCF2D"/>
<path d="M112.425 110.808C113.897 110.811 114.999 111.921 114.996 113.398C114.994 114.875 113.887 115.98 112.415 115.978C110.943 115.975 109.841 114.865 109.844 113.388C109.847 111.911 110.953 110.805 112.425 110.808Z" fill="#FFCF2D"/>
<path d="M112.468 88.7758C113.94 88.7786 115.042 89.8885 115.039 91.3655C115.036 92.8426 113.93 93.9482 112.458 93.9454C110.985 93.9426 109.883 92.8327 109.886 91.3556C109.889 90.0017 110.995 88.7729 112.468 88.7758Z" fill="#FFCF2D"/>
<path d="M112.51 66.7426C113.982 66.7454 115.084 67.8553 115.081 69.3323C115.078 70.8094 113.972 71.915 112.5 71.9122C111.028 71.9094 109.926 70.7995 109.929 69.3224C109.932 67.8454 111.038 66.7397 112.51 66.7426Z" fill="#FFCF2D"/>
<path d="M112.552 44.8344C114.024 44.8372 115.126 45.9471 115.123 47.4241C115.12 48.9012 114.014 50.0068 112.542 50.004C111.07 50.0011 109.968 48.8912 109.971 47.4142C109.974 45.9372 111.08 44.8315 112.552 44.8344Z" fill="#FFCF2D"/>
<path d="M112.513 22.3783C113.986 22.3811 115.088 23.491 115.085 24.9681C115.082 26.4451 113.976 27.5508 112.504 27.5479C111.031 27.5451 109.929 26.4352 109.932 24.9582C109.935 23.4811 111.041 22.3755 112.513 22.3783Z" fill="#FFCF2D"/>
<path d="M112.637 0.768931C114.109 0.771766 115.211 1.88166 115.208 3.35869C115.205 4.83573 114.099 5.94139 112.627 5.93855C111.155 5.93572 110.053 4.82581 110.056 3.34877C110.058 1.99482 111.165 0.766097 112.637 0.768931Z" fill="#FFCF2D"/>
<path d="M130.454 176.818C131.927 176.821 133.029 177.93 133.026 179.408C133.023 180.885 131.917 181.99 130.444 181.987C128.972 181.985 127.87 180.875 127.873 179.398C127.876 177.921 129.105 176.815 130.454 176.818Z" fill="#FFCF2D"/>
<path d="M130.497 154.785C131.969 154.787 133.071 155.897 133.068 157.374C133.065 158.851 131.959 159.957 130.487 159.954C129.015 159.951 127.913 158.841 127.916 157.364C127.918 156.01 129.147 154.782 130.497 154.785Z" fill="#FFCF2D"/>
<path d="M130.539 132.875C132.011 132.878 133.113 133.988 133.11 135.465C133.107 136.942 132.001 138.048 130.529 138.045C129.057 138.042 127.955 136.932 127.958 135.455C127.96 133.978 129.189 132.873 130.539 132.875Z" fill="#FFCF2D"/>
<path d="M130.581 110.843C132.053 110.846 133.155 111.956 133.153 113.433C133.15 114.91 132.044 116.016 130.571 116.013C129.099 116.01 127.997 114.9 128 113.423C128.003 111.946 129.232 110.841 130.581 110.843Z" fill="#FFCF2D"/>
<path d="M130.624 88.8109C132.096 88.8138 133.198 89.9237 133.195 91.4007C133.192 92.8777 132.086 93.9834 130.614 93.9805C129.142 93.9777 128.04 92.8678 128.043 91.3908C128.045 90.0368 129.274 88.8083 130.624 88.8109Z" fill="#FFCF2D"/>
<path d="M130.666 66.7777C132.138 66.7806 133.24 67.8905 133.238 69.3675C133.235 70.8445 132.128 71.9502 130.656 71.9473C129.184 71.9445 128.082 70.8346 128.085 69.3576C128.088 67.8805 129.317 66.7751 130.666 66.7777Z" fill="#FFCF2D"/>
<path d="M130.708 44.8685C132.18 44.8714 133.282 45.9813 133.28 47.4583C133.277 48.9353 132.17 50.041 130.698 50.0382C129.226 50.0353 128.124 48.9254 128.127 47.4484C128.13 45.9713 129.359 44.8659 130.708 44.8685Z" fill="#FFCF2D"/>
<path d="M130.751 22.8363C132.223 22.8391 133.325 23.949 133.322 25.4261C133.319 26.9031 132.213 28.0088 130.741 28.0059C129.269 28.0031 128.167 26.8932 128.17 25.4162C128.172 23.9391 129.401 22.8337 130.751 22.8363Z" fill="#FFCF2D"/>
<path d="M130.793 0.804088C132.265 0.806922 133.367 1.91681 133.365 3.39385C133.362 4.87089 132.255 5.97654 130.783 5.97371C129.311 5.97088 128.209 4.86097 128.212 3.38393C128.215 2.02998 129.444 0.80149 130.793 0.804088Z" fill="#FFCF2D"/>
</g>
<defs>
<clipPath id="clip0_2234_9590">
<rect width="181.184" height="132.739" fill="white" transform="translate(0.282227 181.736) rotate(-89.8897)"/>
</clipPath>
</defs>
</svg>
